<svg width="15" height="14" viewBox="0 0 15 14" fill="none" xmlns="http://www.w3.org/2000/svg">
<path d="M11.333 0.875H4.33301C4.10094 0.875 3.87838 0.967187 3.71429 1.13128C3.5502 1.29538 3.45801 1.51794 3.45801 1.75V3.5C3.45801 3.73206 3.5502 3.95462 3.71429 4.11872C3.87838 4.28281 4.10094 4.375 4.33301 4.375V12.25C4.33301 12.4821 4.4252 12.7046 4.58929 12.8687C4.75338 13.0328 4.97594 13.125 5.20801 13.125H10.458C10.6901 13.125 10.9126 13.0328 11.0767 12.8687C11.2408 12.7046 11.333 12.4821 11.333 12.25V4.375C11.5651 4.375 11.7876 4.28281 11.9517 4.11872C12.1158 3.95462 12.208 3.73206 12.208 3.5V1.75C12.208 1.51794 12.1158 1.29538 11.9517 1.13128C11.7876 0.967187 11.5651 0.875 11.333 0.875ZM5.20801 6.125H6.52051V10.5H5.20801V6.125ZM10.458 12.25H5.20801V11.375H7.39551V5.25H5.20801V4.375H10.458V12.25ZM4.33301 3.5V1.75H11.333V3.5H4.33301Z" fill="#003B4A"/>
</svg>
