<svg width="61" height="55" viewBox="0 0 61 55" fill="none" xmlns="http://www.w3.org/2000/svg">
<g clip-path="url(#clip0_4979_21303)">
<path opacity="0.3" d="M49.7733 13.75C44.6577 13.75 38.5743 15.455 32.878 18.535C27.1541 21.5875 22.2597 25.74 19.2733 30.085C11.5861 41.3875 20.1581 53.955 20.5176 54.505C20.7388 54.835 21.1812 55 21.7619 55C22.3426 55 23.0063 54.835 23.6699 54.505C24.8866 53.9825 50.4093 41.3875 58.0965 30.085C60.9999 25.74 61.7465 21.5875 60.198 18.535C58.6495 15.4825 54.8889 13.75 49.7733 13.75Z" fill="black"/>
<path d="M22.1215 0C16.2869 0 10.7013 2.2825 6.55349 6.3525C2.40571 10.45 0.0553037 15.9775 0 21.78C0 36.85 19.4946 53.625 20.3241 54.34C20.8218 54.7525 21.4578 55 22.1215 55C22.7851 55 23.4211 54.7525 23.9189 54.34C24.8867 53.625 44.243 36.85 44.243 21.78C44.1877 15.9775 41.8373 10.45 37.6895 6.3525C33.5417 2.2825 27.956 0 22.1215 0Z" fill="#0095A9"/>
<path d="M22.1214 34.3748C29.6503 34.3748 35.7537 28.3049 35.7537 20.8173C35.7537 13.3297 29.6503 7.25977 22.1214 7.25977C14.5924 7.25977 8.48901 13.3297 8.48901 20.8173C8.48901 28.3049 14.5924 34.3748 22.1214 34.3748Z" fill="white"/>
</g>
<defs>
<clipPath id="clip0_4979_21303">
<rect width="61" height="55" fill="white"/>
</clipPath>
</defs>
</svg>
